<?xml version="1.0" encoding="UTF-8"?><svg version="1.1" xmlns="http://www.w3.org/2000/svg" xmlns:xlink="http://www.w3.org/1999/xlink" viewBox="0 0 1500 1500" width="1500" height="1500" x="0px" y="0px">
              
              <!-- ITEM 0 -->
<g>
    <defs>
        
        <clipPath id="clip-path-id-viewbox-item-0">
            <rect x="0.0" y="0.0" width="112.039" height="111.513"/>
        </clipPath>
    </defs>
    <g transform="translate(847.0 578.0) rotate(0.0 53.0 52.5) scale(0.9460991261971278 0.9415942535847838)">
        <g clip-path="url(#clip-path-id-viewbox-item-0)" transform="translate(-0.0 -0.0)">
<title>Circle_Dark_Blue</title><circle id="a770a6a6-760e-44b9-9f9f-478b904c7e47-i0" data-name="Circle_Dark_Blue" cx="56.019" cy="55.756" r="55" fill="#324a58"/>
        </g>
    </g>
</g>

<!-- ITEM 1 -->
<g>
    <defs>
        
        <clipPath id="clip-path-id-viewbox-item-1">
            <rect x="0.0" y="0.0" width="301.603" height="656.921"/>
        </clipPath>
    </defs>
    <g transform="translate(833.0 296.0) rotate(0.0 245.0 533.0) scale(1.6246522746789653 1.6227217580196096)">
        <g clip-path="url(#clip-path-id-viewbox-item-1)" transform="translate(-0.0 -0.0)">

<g>
	<g>
		<path style="fill:#324A58;" d="M233.592,43.339c-29.848-89.119-70.851-16.085-70.085,1.915c0.403,9.464,4.004,26.333,8.1,42.902    c0.473-4.922,2.058-9.827,2.08-14.872c0.007-1.62,1.172-2.482,2.422-2.606c1.256-0.295,2.596,0.198,2.906,1.796    c0.042,0.148,0.071,0.305,0.088,0.47c1.394,8.33,3.661,18.071-2.042,25.245c-0.742,0.934-1.815,1.01-2.749,0.621    c5.068,19.475,10.003,36.06,10.003,36.06l18.711,11.818c6.338,4.003,14.424,3.958,20.718-0.114    c4.286-2.773,9.798-2.781,14.092-0.021l14.905,6.7C252.741,153.254,260.528,123.764,233.592,43.339z M222.186,112.561    c-1.138,3.301-6.399,1.874-5.254-1.448c0.489-1.42,0.57-2.63,0.311-3.771c-1.403,2.1-2.946,4.101-4.694,5.911    c-2.441,2.528-6.289-1.329-3.853-3.853c3.469-3.593,6.01-8.039,8.255-12.47c1.587-3.132,6.286-0.371,4.705,2.75    c-0.359,0.71-0.731,1.417-1.11,2.122C222.685,105.049,223.578,108.523,222.186,112.561z"/>
	</g>
	<g>
		<polygon style="fill:#FFE7E6;" points="247.496,416.467 250.832,639.039 241.117,639.553 220.963,417.87   "/>
	</g>
	<g>
		<path style="fill:#FF564F;" d="M298.703,410.574c1.13-31.58-24.182-57.975-56.086-57.86c-29.05,0.104-53.444,22.949-55.465,51.929    c-0.907,12.998,2.683,25.195,9.402,35.142c5.318,7.873,7.764,17.34,7.424,26.835l-0.173,4.839    c-0.498,13.922,10.384,25.612,24.306,26.11l21.78,0.779c13.922,0.498,25.612-10.384,26.11-24.306l0.122-3.419    c0.351-9.817,3.937-19.225,10.133-26.849C293.649,434.679,298.251,423.19,298.703,410.574z"/>
	</g>
	<path style="fill:#2568EF;" d="M279.829,334.564c-5.795-14.638-17.606-35.017-19.562-45.376   c-5.135-27.525-19.055-78.407-17.483-87.594l-43.995,10.275l4.836,10.113c-1.319,2.146-2.108,4.655-2.148,7.357   c-0.703,47.827-11.708,79.697-31.823,92.165c-23.42,14.516-54.446,0.058-54.978-0.195c-7.187-3.479-15.839-0.492-19.346,6.688   c-3.515,7.195-0.531,15.878,6.665,19.393c1.194,0.584,19.993,9.568,43.209,9.568c11.258,0,23.554-2.127,35.385-8.336l-0.035-0.071   c1.617-0.804,3.173-1.676,4.681-2.595c2.64-1.655,5.167-3.477,7.578-5.472c-0.002,0.026-0.005,0.052-0.007,0.078   c29.576-24.435,34.128-70.621,34.175-71.142l1.992,0.18c-0.049,0.541-4.821,49.073-36.421,73.724   c-2.499,27.337-3.944,47.999-3.944,47.999s-4.752,4.351,34.885,7.538c47.361,3.808,66.685-17.134,66.685-17.134   S289.381,358.692,279.829,334.564z"/>
	<g>
		
			<ellipse transform="matrix(0.9382 -0.3462 0.3462 0.9382 -56.232 88.1693)" style="fill:#FFE7E6;" cx="218.669" cy="201.477" rx="53.76" ry="29.668"/>
	</g>
	<g>
		<path style="fill:#324A58;" d="M234.013,627.536l-11.295-68.75l35.745,7.66l-1.861,65.959c0,0,2.7,19,1.9,23.7h-10.9l0.3-12    c0,0-8.5,7-17,10.1c-8.6,3.1-25.2,2.7-25.2,2.7S225.51,643.56,234.013,627.536z"/>
	</g>
	<g>
		<polygon style="fill:#2568EF;" points="78.032,349.188 76.632,341.529 66.438,347.56   "/>
	</g>
	<g>
		<path style="fill:#FF564F;" d="M60,236.808c0.213,0.463,0.5,0.806,0.958,1.006c1.089,0.345,2.79-0.202,4.151-0.782    c-1.196-2.825-2.391-4.859-3.538-6.282l-2.464,1.44C59.074,232.916,59.199,234.737,60,236.808z"/>
		<path style="fill:#FF564F;" d="M80.449,293.413c-5.024-6-8.078-18.842-9.031-24.578c-0.61-3.672-0.163-6.969-1.057-12.953    c-2.048,0.412-5.006,0.922-6.857,0.855c-0.412-0.005-0.82-0.422-0.695-0.76c0.125-0.338,0.348-0.699,0.639-0.769    c0.097-0.023,0.097-0.023,0.195-0.046c1.642,0.048,4.488-0.458,6.46-0.86c-0.543-3.082-1.437-6.832-2.945-11.591    c-0.471-1.519-0.947-2.889-1.424-4.131c-1.52,0.673-3.621,1.323-5.232,0.78c-0.894-0.301-1.565-0.964-1.871-1.817    c-1.153-3.118-0.93-5.638-0.953-5.735c0.051-0.218,0.199-0.459,0.371-0.602l2.587-1.498c-2.516-2.493-4.709-2.17-6-1.185    c-2.349,1.792-1.243,4.715-1.007,7.435c0.259,2.817,2.202,8.83,2.256,14.676c0.16,7.157-1.186,16.625-1.186,16.625    s-7.317-6.997-11.359-14.053c-4.042-7.056-5.866-12.996-7.763-20.973c-1.897-7.978-3.832-12.657-6.848-11.94    c-1.814,0.431-2.811,1.855-3.364,3.393c-0.236,3.02-0.259,8.241,1.232,15.307c2.387,11.767,5.656,18.596,8.503,24.086    c2.87,5.588,7.76,12.751,7.783,12.848c0.19,0.366,0.185,0.778-0.255,1.089c-0.366,0.19-0.778,0.185-1.089-0.255    c-0.023-0.097-5.033-7.334-7.904-12.922c-2.871-5.587-6.185-12.611-8.595-24.475c-0.897-4.416-1.253-8.117-1.342-11.045    c-1.114-0.069-2.878,0.045-3.857,1.283c-2.66,3.51-1.365,11.117,0.532,19.095c2.175,9.145,5.494,17.915,5.494,17.915    c-0.018-0.012-0.035-0.028-0.053-0.041c4.459,10.418,9.429,14.783,9.536,14.849c0.287,0.343,0.38,0.732,0.06,1.116    c-0.343,0.287-0.732,0.38-1.116,0.06c-0.264-0.246-6.737-5.891-11.619-19.919c-2.553-4.306-4.576-10.15-4.576-10.15    s-3.697-13.82-7.794-7.706c-3.429,5.03,3.321,19.151,4.612,22.853c0.754,2.161,2.121,4.696,3.131,6.436    c4.436,6.596,11.39,12.221,11.498,12.288c0.385,0.32,0.38,0.732,0.157,1.093c-0.32,0.384-0.732,0.38-1.093,0.157    c-0.367-0.305-8.252-6.685-12.711-13.97c-2.778-2.061-6.512-4.866-8.254-6.33c-2.955-2.484-5.34-3.87-7.231-1.878    c-1.891,1.991,3.134,7.992,6.181,10.865c3.047,2.873,5.252,5.227,17.465,14.657c12.236,9.528,27.236,10.792,32.155,11.164    s10.283,4.339,12.663,6.137c2.478,1.775,16.199,19.275,16.199,19.275c1.674-6.36,10.844-14.913,10.844-14.913    S85.594,299.487,80.449,293.413z"/>
	</g>
	<g>
		
			<ellipse transform="matrix(0.7118 -0.7023 0.7023 0.7118 -202.3627 164.4458)" style="fill:#FFE7E6;" cx="99.222" cy="328.834" rx="31.404" ry="17.617"/>
	</g>
	<g>
		<polygon style="fill:#2568EF;" points="119.447,315.657 110.131,308.677 125.767,299.765   "/>
	</g>
	<g>
		<polygon style="fill:#2568EF;" points="90.932,334.871 99.166,344.573 88.187,345.083   "/>
	</g>
	<g>
		<polygon style="fill:#2568EF;" points="97.429,324.489 109.283,328.209 108.342,320.653   "/>
	</g>
	<g>
		<path style="fill:#FFE7E6;" d="M234.311,485.105c-16.88-32.439-11.086-59.486-11.086-59.486l0.892,3.013    C229.564,447.04,232.977,465.947,234.311,485.105L234.311,485.105z"/>
	</g>
	<g>
		<path style="fill:#FFE7E6;" d="M244.478,486.126c16.88-32.439,11.086-59.486,11.086-59.486l-0.892,3.013    C249.225,448.062,245.811,466.969,244.478,486.126L244.478,486.126z"/>
	</g>
	<g>
		<path style="fill:#FFE7E6;" d="M233.804,412.913c-7.828,0-14.785-0.989-20.696-2.381c-21.124-4.97-33.742-15.959-34.269-16.424    c-3.104-2.742-3.398-7.482-0.656-10.586c2.737-3.1,7.464-3.398,10.568-0.672c1.784,1.548,42.689,35.96,101.089-4.364    c3.407-2.353,8.079-1.498,10.433,1.91c2.354,3.409,1.498,8.08-1.911,10.434C273.736,407.834,251.536,412.913,233.804,412.913z"/>
	</g>
	<g>
		<g>
			<circle style="fill:#FF564F;" cx="223.049" cy="232.499" r="37.606"/>
		</g>
		<g>
			<path style="fill:#FFE7E6;" d="M202.004,255.794c0,0-17.615-30.853,8.887-45.652     C210.892,210.142,196.898,227.783,202.004,255.794z"/>
		</g>
		<g>
			<path style="fill:#FFE7E6;" d="M227.991,258.465c0,0,26.476-23.761,7.417-45.914C235.408,212.551,241.951,234.83,227.991,258.465     z"/>
		</g>
	</g>
	<g>
		<polygon style="fill:#2568EF;" points="264.336,189.239 259.593,203.034 277.764,197.007   "/>
	</g>
	<g>
		<polygon style="fill:#2568EF;" points="174.782,205.934 182.221,216.855 161.908,216.413   "/>
	</g>
	<g>
		<polygon style="fill:#2568EF;" points="193.89,180.455 188.683,193.757 181.21,180.766   "/>
	</g>
	<g>
		<polygon style="fill:#2568EF;" points="258.042,165.97 238.171,171.092 252.497,176.844   "/>
	</g>
	<path style="fill:#FF564F;" d="M226.135,82.905c-0.756-0.169-1.523-0.205-2.293-0.129c0.131-20.747-6.824-68.599-43.724-52.004   c0,0-26.059,3.801-16.121,50.595c0,0,1.445,10.693-4.058,14.316c-1.666,1.097-3.331,2.193-7.452,4.554   c-3.151,1.805-3.787,7.217,4.724,8.395c3.086,0.243,7.106,0.224,10.587-0.902c0.526-0.17,1.089,0.119,1.259,0.644   c0.17,0.525-0.119,1.089-0.644,1.259c-2.659,0.86-5.554,1.136-8.172,1.136c-0.169,0-0.334-0.003-0.5-0.005   c-0.319,3.237-1.009,10.183-1.787,17.692c5.994,0.953,12.674-0.553,15.198-2.986c0.397-0.383,1.032-0.37,1.414,0.025   c0.383,0.397,0.372,1.031-0.026,1.414c-2.342,2.259-7.508,3.837-12.886,3.837c-1.303,0-2.617-0.096-3.908-0.293   c-1.096,10.501-2.311,21.535-2.893,24.714c-1.989,10.859,8.753,17.773,18.961,13.571c3.139-1.292,6.711-3.403,10.763-6.603   c12.45-9.835,22.067-24.553,28.664-38.995c0.422,0.179,0.863,0.333,1.339,0.439c6.65,1.486,16.187-4.832,18.823-16.626   S232.785,84.391,226.135,82.905z M176.797,95.101c0.271,1.936-4.433,3.583-4.143-1.393l1.377-19.044   c0.114-1.299,1.347-2.36,2.646-2.246c1.299,0.114,2.36,1.347,2.246,2.646L176.797,95.101z M229.29,93.248   c-0.226,0.505-0.817,0.729-1.321,0.503c-1.31-0.586-2.612-0.58-3.982,0.017c-2.324,1.013-4.453,3.517-6.234,6.32   c2.532,2.439,5.481,7.609,1.713,13.215c-0.193,0.287-0.509,0.442-0.831,0.442c-0.192,0-0.386-0.055-0.557-0.17   c-0.458-0.309-0.581-0.93-0.272-1.388c3.167-4.712,0.41-8.671-1.12-10.319c-2.586,4.571-4.209,9.277-4.237,9.36   c-0.142,0.416-0.53,0.678-0.947,0.678c-0.106,0-0.215-0.017-0.322-0.054c-0.523-0.178-0.803-0.745-0.625-1.268   c0.214-0.63,5.324-15.465,12.632-18.65c1.89-0.823,3.773-0.827,5.6-0.008C229.291,92.152,229.516,92.744,229.29,93.248z"/>
	<g>
		<path style="fill:#324A58;" d="M173.161,59.023c1.841-1.378,4.18-0.257,7.317,3.266c1.299,1.401,4.516,5.364,3.234,6.823    c-1.281,1.459-4.58,0.056-8.357-3.987C172.678,62.382,172.201,59.742,173.161,59.023z"/>
	</g>
	<g>
		<path style="fill:#324A58;" d="M166.121,121.131c-0.179-0.04-0.351-0.1-0.516-0.18c-0.036-0.017-0.074-0.032-0.109-0.051    c-0.075-0.041-0.146-0.089-0.217-0.138c-0.026-0.018-0.052-0.036-0.077-0.056c-0.298-0.225-0.554-0.514-0.726-0.874    c-0.567-1.194-0.059-2.622,1.135-3.189c0.259-0.123,0.53-0.187,0.8-0.212c-0.001-0.001-0.003-0.007-0.003-0.007    c6.93-0.696,17.722-6.861,17.722-6.861c-2.773,8.775-14.865,12.091-17.778,11.614c-0.05-0.006-0.098-0.014-0.148-0.023    C166.176,121.146,166.149,121.138,166.121,121.131z"/>
	</g>
	<g>
		<path style="fill:#324A58;" d="M134.899,178.463c0,0,11.948-15.613,17.376-23.395c2.113-3.03,12.285-11.152,14.993,2.304    C170.323,172.55,134.899,178.463,134.899,178.463z"/>
	</g>
	<g>
		<path style="fill:#324A58;" d="M163.506,45.254c0,0,23.745,21.447,42.128,13.787c0,0,2.298,43.277,32.17,55.149l-1.149-31.021    l-21.83-60.894l-22.213-1.915l-19.915,9.574L163.506,45.254z"/>
	</g>
	<g>
		<g>
			<path style="fill:#FF564F;" d="M223.151,178.458c-1.078-3.666-7.091-19.165-8.083-25.693c-0.51-3.538-1.914-10.646-3.545-18.485     c-2.958,4.748-7.936,12.605-12.538,19.258c2.574,14.973,6.205,20.994,7.325,25.667c1.997,8.682,5.625,13.508,12.168,10.377     C225.022,186.452,224.247,182.222,223.151,178.458z"/>
		</g>
	</g>
</g>

        </g>
    </g>
</g>

<!-- ITEM 2 -->
<g>
    <defs>
        
        <clipPath id="clip-path-id-viewbox-item-2">
            <rect x="0.0" y="0.0" width="192.514" height="299.284"/>
        </clipPath>
    </defs>
    <g transform="translate(799.0 320.0) rotate(0.0 -276.5 430.0) scale(-2.8725183623009234 2.873524812552626)">
        <g clip-path="url(#clip-path-id-viewbox-item-2)" transform="translate(-0.0 -0.0)">

<g>
	<g>
		<path style="fill:#2568EF;" d="M169.179,38.363l-133.503-0.79c-0.013,0-0.026,0-0.039,0c-3.747,0-7.167,3.192-7.651,7.148    L0.057,273.438c-0.485,3.97,2.172,7.206,5.934,7.228l135.45,0.802c0.013,0,0.026,0,0.039,0c3.747,0,7.167-3.192,7.65-7.148    l27.678-226.662C177.432,42.553,174.016,38.392,169.179,38.363z"/>
	</g>
	<g>
		<path style="fill:#FF564F;" d="M171.116,20.764L62.788,20.123c-8.911-0.053-17.316,4.959-22.475,12.475l129.348,0.765    c3.686,0.022,7.03,1.528,9.417,4.241c2.482,2.82,3.629,6.705,3.146,10.658l-27.678,226.662    c-0.79,6.472-6.331,11.542-12.614,11.542l-0.054,0h-0.015L8.117,285.676c2.526,7.606,9.235,12.887,17.743,12.938l113.194,0.67    c12.361,0.073,23.673-10.442,25.266-23.486l27.99-229.218C194.041,32.401,184.552,20.843,171.116,20.764z"/>
	</g>
	<path style="fill:#2568EF;" d="M169.631,38.363l-133.503-0.79c-0.013,0-0.026,0-0.039,0c-3.747,0-7.167,3.192-7.651,7.148   L0.51,273.438c-0.485,3.97,2.172,7.206,5.934,7.228l135.45,0.802c0.013,0,0.026,0,0.039,0c3.747,0,7.167-3.192,7.65-7.148   l27.678-226.662C177.884,42.553,174.468,38.392,169.631,38.363z"/>
	<g>
		<g>
			<path style="fill:#FFE7E6;" d="M131.521,265.215l-109.378-0.647c-5.354-0.032-9.135-4.637-8.445-10.287L37.877,56.269     c0.69-5.65,5.59-10.204,10.944-10.173l109.378,0.647c5.354,0.032,9.135,4.637,8.445,10.287l-24.179,198.011     C141.775,260.692,136.876,265.247,131.521,265.215z"/>
		</g>
	</g>
	<g>
		<g>
			
				<ellipse transform="matrix(0.5704 -0.8213 0.8213 0.5704 -20.3385 76.2209)" style="fill:#324A58;" cx="62.7" cy="57.555" rx="4.245" ry="3.724"/>
		</g>
	</g>
	<g>
		<g>
			
				<ellipse transform="matrix(0.5704 -0.8213 0.8213 0.5704 -11.1896 93.9689)" style="fill:#324A58;" cx="84.242" cy="57.682" rx="4.245" ry="3.724"/>
		</g>
	</g>
	<g>
		<g>
			
				<ellipse transform="matrix(0.5704 -0.8213 0.8213 0.5704 -1.9531 111.8871)" style="fill:#324A58;" cx="105.991" cy="57.811" rx="4.245" ry="3.724"/>
		</g>
	</g>
	<g>
		<g>
			
				<ellipse transform="matrix(0.5704 -0.8213 0.8213 0.5704 7.3749 129.9825)" style="fill:#324A58;" cx="127.954" cy="57.941" rx="4.245" ry="3.724"/>
		</g>
	</g>
	<g>
		<g>
			
				<ellipse transform="matrix(0.5704 -0.8213 0.8213 0.5704 15.6189 145.9752)" style="fill:#324A58;" cx="147.366" cy="58.056" rx="4.245" ry="3.724"/>
		</g>
	</g>
	<g>
		<g>
			<g>
				<path style="fill:#324A58;" d="M76.156,20.005C76.316,14.002,76.03,0.036,69.951,0c-6.245-0.037-10.968,15.326-12.713,29.616      S56.46,59.303,62.705,59.34c1.027,0.006,1.966-0.867,2.098-1.95c0.132-1.083-0.593-1.966-1.619-1.972      c-1.607-0.01-4.303-8.792-2.228-25.779s6.91-25.725,8.516-25.716c0.86,0.005,3.24,4.025,2.942,16.257l3.718,0.022      C76.14,20.136,76.154,20.072,76.156,20.005z"/>
			</g>
		</g>
	</g>
	<g>
		<g>
			<g>
				<path style="fill:#324A58;" d="M97.483,20.131c0.16-6.003-0.126-19.969-6.205-20.005C85.033,0.089,80.31,15.452,78.565,29.742      c-1.745,14.29-0.778,29.687,5.467,29.724c1.027,0.006,1.966-0.867,2.098-1.95c0.132-1.083-0.593-1.966-1.619-1.972      c-1.607-0.01-4.303-8.792-2.228-25.779c2.074-16.987,6.91-25.725,8.516-25.716c0.86,0.005,3.24,4.025,2.942,16.257l3.718,0.022      C97.467,20.262,97.481,20.198,97.483,20.131z"/>
			</g>
		</g>
	</g>
	<g>
		<g>
			<g>
				<path style="fill:#324A58;" d="M119.24,20.26c0.16-6.003-0.126-19.969-6.205-20.005c-6.245-0.037-10.968,15.326-12.713,29.616      c-1.745,14.29-0.778,29.687,5.467,29.724c1.027,0.006,1.966-0.867,2.098-1.95s-0.593-1.966-1.619-1.972      c-1.607-0.01-4.303-8.792-2.228-25.779c2.074-16.987,6.91-25.725,8.516-25.716c0.86,0.005,3.24,4.025,2.942,16.257l3.718,0.022      C119.224,20.391,119.238,20.327,119.24,20.26z"/>
			</g>
		</g>
	</g>
	<g>
		<g>
			<g>
				<path style="fill:#324A58;" d="M141.41,20.391c0.16-6.003-0.126-19.969-6.205-20.005c-6.245-0.037-10.968,15.326-12.713,29.616      c-1.745,14.29-0.778,29.687,5.467,29.724c1.027,0.006,1.966-0.867,2.098-1.95c0.132-1.083-0.593-1.966-1.619-1.972      c-1.607-0.01-4.303-8.792-2.228-25.779c2.074-16.987,6.91-25.725,8.516-25.716c0.86,0.005,3.24,4.025,2.942,16.257l3.718,0.022      C141.394,20.522,141.408,20.458,141.41,20.391z"/>
			</g>
		</g>
	</g>
	<g>
		<g>
			<g>
				<path style="fill:#324A58;" d="M160.599,20.505c0.16-6.003-0.126-19.969-6.205-20.005c-6.245-0.037-10.968,15.326-12.713,29.616      s-0.778,29.687,5.467,29.724c1.027,0.006,1.966-0.867,2.098-1.95c0.132-1.083-0.593-1.966-1.619-1.972      c-1.607-0.01-4.303-8.792-2.228-25.779s6.91-25.725,8.516-25.716c0.86,0.005,3.24,4.025,2.942,16.257l3.718,0.022      C160.583,20.636,160.597,20.571,160.599,20.505z"/>
			</g>
		</g>
	</g>
</g>

        </g>
    </g>
</g>

<!-- ITEM 3 -->
<g>
    <defs>
        
        <clipPath id="clip-path-id-viewbox-item-3">
            <rect x="0.0" y="0.0" width="112.039" height="111.513"/>
        </clipPath>
    </defs>
    <g transform="translate(400.0 723.0) rotate(0.0 33.5 33.0) scale(0.5980060514642223 0.5918592451104355)">
        <g clip-path="url(#clip-path-id-viewbox-item-3)" transform="translate(-0.0 -0.0)">
<title>Circle_Dark_Blue</title><circle id="a770a6a6-760e-44b9-9f9f-478b904c7e47-i3" data-name="Circle_Dark_Blue" cx="56.019" cy="55.756" r="55" fill="#324a58"/>
        </g>
    </g>
</g>

<!-- ITEM 4 -->
<g>
    <defs>
        
        <clipPath id="clip-path-id-viewbox-item-4">
            <rect x="0.0" y="0.0" width="112.039" height="111.513"/>
        </clipPath>
    </defs>
    <g transform="translate(418.0 849.0) rotate(0.0 34.5 34.0) scale(0.6158569783736021 0.6097943737501457)">
        <g clip-path="url(#clip-path-id-viewbox-item-4)" transform="translate(-0.0 -0.0)">
<title>Circle_Dark_Blue</title><circle id="a770a6a6-760e-44b9-9f9f-478b904c7e47-i4" data-name="Circle_Dark_Blue" cx="56.019" cy="55.756" r="55" fill="#324a58"/>
        </g>
    </g>
</g>

<!-- ITEM 5 -->
<g>
    <defs>
        
        <clipPath id="clip-path-id-viewbox-item-5">
            <rect x="0.0" y="0.0" width="112.039" height="111.513"/>
        </clipPath>
    </defs>
    <g transform="translate(388.0 601.0) rotate(0.0 32.0 31.5) scale(0.5712296611001526 0.5649565521508703)">
        <g clip-path="url(#clip-path-id-viewbox-item-5)" transform="translate(-0.0 -0.0)">
<title>Circle_Beige</title><circle id="b22bc848-5079-4247-a8b5-085881dc8dc5-i5" data-name="Circle_Beige" cx="56.019" cy="55.756" r="55" fill="#ffffff"/>
        </g>
    </g>
</g>

<!-- ITEM 6 -->
<g>
    <defs>
        
        <clipPath id="clip-path-id-viewbox-item-6">
            <rect x="0.0" y="0.0" width="137.191" height="25.908"/>
        </clipPath>
    </defs>
    <g transform="translate(490.0 616.0) rotate(353.4760166324297 87.5 16.5) scale(1.2755938800650188 1.2737378415933303)">
        <g clip-path="url(#clip-path-id-viewbox-item-6)" transform="translate(-0.0 -0.0)">

<path id="Decorative_Lines_3-i6" style="fill:#ffffff;" d="M5.401,7.743c0,0,84.4,10.4,108,13.6c15.4,2,21.2,3.4,22.2-2.7  c1-5.9-3-6.6-20.1-8.4c-17.1-1.7-34.7-2.9-54-4.4c-19.3-1.4-54.7-3.6-56.4-3.6C1.401,2.243,1.101,6.743,5.401,7.743z"/>

        </g>
    </g>
</g>

<!-- ITEM 7 -->
<g>
    <defs>
        
        <clipPath id="clip-path-id-viewbox-item-7">
            <rect x="0.0" y="0.0" width="95.475" height="142.09"/>
        </clipPath>
    </defs>
    <g transform="translate(873.0 594.0) rotate(11.384828649005186 22.5 33.5) scale(0.4713275726630008 0.4715321275248082)">
        <g clip-path="url(#clip-path-id-viewbox-item-7)" transform="translate(-0.0 -0.0)">

<path id="Check_Mark-i7" style="fill:#ffffff;" d="M64.463,107.978l2.8-106.7c0-0.9,0.9-1.5,1.7-1.2l25.3,8.4c0.8,0.3,1.3,1.1,1.2,1.9  l-18.7,130.8c-0.1,0.9-1.2,1.2-1.8,0.6l-74.3-71.2c-0.5-0.5-0.8-1.3-0.6-2l6.7-27.3c0.1-0.6,0.8-0.7,1.2-0.3L64.463,107.978z"/>

        </g>
    </g>
</g>

<!-- ITEM 8 -->
<g>
    <defs>
        
        <clipPath id="clip-path-id-viewbox-item-8">
            <rect x="0.0" y="0.0" width="137.191" height="25.908"/>
        </clipPath>
    </defs>
    <g transform="translate(499.0 733.0) rotate(353.19237483366936 89.0 17.0) scale(1.2974612037232762 1.3123359580052494)">
        <g clip-path="url(#clip-path-id-viewbox-item-8)" transform="translate(-0.0 -0.0)">

<path id="Decorative_Lines_3-i8" style="fill:#324a58;" d="M5.401,7.743c0,0,84.4,10.4,108,13.6c15.4,2,21.2,3.4,22.2-2.7  c1-5.9-3-6.6-20.1-8.4c-17.1-1.7-34.7-2.9-54-4.4c-19.3-1.4-54.7-3.6-56.4-3.6C1.401,2.243,1.101,6.743,5.401,7.743z"/>

        </g>
    </g>
</g>

<!-- ITEM 9 -->
<g>
    <defs>
        
        <clipPath id="clip-path-id-viewbox-item-9">
            <rect x="0.0" y="0.0" width="137.191" height="25.908"/>
        </clipPath>
    </defs>
    <g transform="translate(516.0 862.0) rotate(352.6720456942804 87.0 16.5) scale(1.268304772178933 1.2737378415933303)">
        <g clip-path="url(#clip-path-id-viewbox-item-9)" transform="translate(-0.0 -0.0)">

<path id="Decorative_Lines_3-i9" style="fill:#324a58;" d="M5.401,7.743c0,0,84.4,10.4,108,13.6c15.4,2,21.2,3.4,22.2-2.7  c1-5.9-3-6.6-20.1-8.4c-17.1-1.7-34.7-2.9-54-4.4c-19.3-1.4-54.7-3.6-56.4-3.6C1.401,2.243,1.101,6.743,5.401,7.743z"/>

        </g>
    </g>
</g>

              </svg>